<svg xmlns="http://www.w3.org/2000/svg" width="25.954" height="15.972" viewBox="0 0 25.954 15.972"><defs><style>.a{fill:#d1900f;}.b{fill:#dfdfdf;}</style></defs><g transform="translate(-11 -6.039)"><g transform="translate(11 -3)"><path class="a" d="M23.568,18.652a1.331,1.331,0,0,0-1.328,0l-5.057,2.89a1.331,1.331,0,0,0-.67,1.155V27.9a1.331,1.331,0,0,0,1.331,1.331H22.9A1.331,1.331,0,0,0,24.231,27.9V19.8A1.334,1.334,0,0,0,23.568,18.652Z" transform="translate(-7.394 -4.224)"/><path class="a" d="M7.123,28.017a1.323,1.323,0,0,0-1.328,0L.671,30.941a1.331,1.331,0,0,0,.66,2.486H6.456A1.331,1.331,0,0,0,7.786,32.1V29.168A1.328,1.328,0,0,0,7.123,28.017Z" transform="translate(0 -8.417)"/><path class="b" d="M40.023,9.218a1.328,1.328,0,0,0-1.328,0l-5.124,2.928A1.331,1.331,0,0,0,32.9,13.3V23.679a1.331,1.331,0,0,0,1.331,1.331h5.124a1.331,1.331,0,0,0,1.331-1.331V10.37A1.33,1.33,0,0,0,40.023,9.218Z" transform="translate(-14.732)"/></g></g></svg>