<svg xmlns="http://www.w3.org/2000/svg" width="17.661" height="15.334" viewBox="0 0 17.661 15.334">
  <g id="Group_2296" data-name="Group 2296" transform="translate(0 0)">
    <path id="Rectangle_1540" data-name="Rectangle 1540" d="M0,0H17.661a0,0,0,0,1,0,0V10.886a1,1,0,0,1-1,1H1a1,1,0,0,1-1-1V0A0,0,0,0,1,0,0Z" transform="translate(0 3.448)" fill="#bdbdbd"/>
    <path id="Subtraction_1" data-name="Subtraction 1" d="M17.661,2.607H0V1A1,1,0,0,1,1,0H16.661a1,1,0,0,1,1,1V2.606ZM7.6.448V2.173H9.326V.448Zm-2.691,0V2.173H6.635V.448Zm-2.65,0V2.173H3.986V.448Z" fill="#bdbdbd"/>
  </g>
</svg>
