<svg xmlns="http://www.w3.org/2000/svg" width="15.395" height="12.787" viewBox="0 0 15.395 12.787">
  <g id="Group_3146" data-name="Group 3146" transform="translate(0 0)">
    <path id="Path_1181" data-name="Path 1181" d="M14.529,46.86l.024.005H4.252L7.49,43.62a.85.85,0,0,0,0-1.2l-.5-.5a.843.843,0,0,0-1.19,0L.245,47.47a.849.849,0,0,0,0,1.194L5.8,54.215a.844.844,0,0,0,1.19,0l.5-.5a.834.834,0,0,0,.246-.595.809.809,0,0,0-.246-.584L4.215,49.269H14.541a.872.872,0,0,0,.854-.864v-.713A.856.856,0,0,0,14.529,46.86Z" transform="translate(0 -41.674)" fill="#01579B"/>
  </g>
</svg>
