<svg xmlns="http://www.w3.org/2000/svg" width="23.906" height="19.024" viewBox="0 0 23.906 19.024"><defs><style>.a{fill:#01579B;}</style></defs><g transform="translate(0 0)"><path class="a" d="M74.239,120.939l-8.526,7.029a.2.2,0,0,1-.007.044.2.2,0,0,0-.007.044v7.117a.963.963,0,0,0,.949.949h5.694v-5.694h3.8v5.694h5.694a.964.964,0,0,0,.949-.949v-7.117a.209.209,0,0,0-.015-.089Z" transform="translate(-62.286 -117.099)"/><path class="a" d="M23.74,56.261l-3.247-2.7v-6.05a.457.457,0,0,0-.475-.474H17.172a.456.456,0,0,0-.474.474V50.4L13.079,47.38a1.839,1.839,0,0,0-2.254,0L.164,56.261A.431.431,0,0,0,0,56.58a.48.48,0,0,0,.1.349l.919,1.1a.506.506,0,0,0,.311.163.551.551,0,0,0,.356-.1L11.952,49.53l10.261,8.556a.457.457,0,0,0,.311.1h.045a.506.506,0,0,0,.311-.163l.919-1.1a.48.48,0,0,0,.1-.349A.432.432,0,0,0,23.74,56.261Z" transform="translate(0.001 -46.994)"/></g></svg>