<svg xmlns="http://www.w3.org/2000/svg" width="16.856" height="18.222" viewBox="0 0 16.856 18.222">
  <g id="Group_2219" data-name="Group 2219" transform="translate(-33.933 -317.916)">
    <path id="Path_1129" data-name="Path 1129" d="M126.379,54.881a.543.543,0,0,0-.269-.064h-16.09a.542.542,0,0,0-.269.064q-.114.064-.114.151v1.289q0,.087.114.151a.541.541,0,0,0,.269.064h16.09a.541.541,0,0,0,.269-.064q.114-.064.114-.151V55.032Q126.492,54.945,126.379,54.881Z" transform="translate(-75.703 263.099)" fill="#615f5f"/>
    <path id="Path_1129-2" data-name="Path 1129" d="M126.379,54.881a.543.543,0,0,0-.269-.064h-16.09a.542.542,0,0,0-.269.064q-.114.064-.114.151v1.289q0,.087.114.151a.541.541,0,0,0,.269.064h16.09a.541.541,0,0,0,.269-.064q.114-.064.114-.151V55.032Q126.492,54.945,126.379,54.881Z" transform="translate(-75.703 267.245)" fill="#615f5f"/>
    <path id="Path_1129-3" data-name="Path 1129" d="M126.379,54.881a.543.543,0,0,0-.269-.064h-16.09a.542.542,0,0,0-.269.064q-.114.064-.114.151v1.289q0,.087.114.151a.541.541,0,0,0,.269.064h16.09a.541.541,0,0,0,.269-.064q.114-.064.114-.151V55.032Q126.492,54.945,126.379,54.881Z" transform="translate(-75.703 271.379)" fill="#615f5f"/>
    <path id="Path_1129-4" data-name="Path 1129" d="M126.379,54.881a.543.543,0,0,0-.269-.064h-16.09a.542.542,0,0,0-.269.064q-.114.064-.114.151v1.289q0,.087.114.151a.541.541,0,0,0,.269.064h16.09a.541.541,0,0,0,.269-.064q.114-.064.114-.151V55.032Q126.492,54.945,126.379,54.881Z" transform="translate(-75.703 275.513)" fill="#615f5f"/>
    <path id="Path_1129-5" data-name="Path 1129" d="M126.379,54.881a.543.543,0,0,0-.269-.064h-16.09a.542.542,0,0,0-.269.064q-.114.064-.114.151v1.289q0,.087.114.151a.541.541,0,0,0,.269.064h16.09a.541.541,0,0,0,.269-.064q.114-.064.114-.151V55.032Q126.492,54.945,126.379,54.881Z" transform="translate(-75.703 279.602)" fill="#615f5f"/>
  </g>
</svg>
