<svg xmlns="http://www.w3.org/2000/svg" width="14.597" height="18.976" viewBox="0 0 14.597 18.976"><defs><style>.a{fill:#bdbdbd;}</style></defs><g transform="translate(2.919 8.028)"><rect class="a" width="8.758" height="1.46"/></g><g transform="translate(2.919 10.947)"><rect class="a" width="8.758" height="1.46"/></g><g transform="translate(2.919 13.867)"><rect class="a" width="8.758" height="1.46"/></g><path class="a" d="M61.137,2.919H59.111a2.184,2.184,0,0,0-1.016-.645,1,1,0,0,1-.691-.691,2.19,2.19,0,0,0-4.209,0,1.006,1.006,0,0,1-.692.692,2.183,2.183,0,0,0-1.015.644H49.46A1.46,1.46,0,0,0,48,4.379V17.516a1.46,1.46,0,0,0,1.46,1.46H61.137a1.46,1.46,0,0,0,1.46-1.46V4.379A1.46,1.46,0,0,0,61.137,2.919ZM55.308,1.46a.73.73,0,1,1-.73.73A.73.73,0,0,1,55.308,1.46Zm5.829,16.056H49.46V4.379h1.46v1.46h8.758V4.379h1.46Z" transform="translate(-48)"/></svg>