<svg id="select-all" xmlns="http://www.w3.org/2000/svg" width="14.299" height="14.299" viewBox="0 0 14.299 14.299">
  <g id="select-all-2" data-name="select-all">
    <path id="Path_1194" data-name="Path 1194" d="M0,1.589H1.589V0A1.593,1.593,0,0,0,0,1.589ZM0,7.944H1.589V6.355H0ZM3.178,14.3H4.766V12.71H3.178ZM0,4.766H1.589V3.178H0ZM7.944,0H6.355V1.589H7.944ZM12.71,0V1.589H14.3A1.593,1.593,0,0,0,12.71,0ZM1.589,14.3V12.71H0A1.593,1.593,0,0,0,1.589,14.3ZM0,11.121H1.589V9.533H0ZM4.766,0H3.178V1.589H4.766ZM6.355,14.3H7.944V12.71H6.355ZM12.71,7.944H14.3V6.355H12.71Zm0,6.355A1.593,1.593,0,0,0,14.3,12.71H12.71Zm0-9.533H14.3V3.178H12.71Zm0,6.355H14.3V9.533H12.71ZM9.533,14.3h1.589V12.71H9.533Zm0-12.71h1.589V0H9.533ZM3.178,11.121h7.944V3.178H3.178ZM4.766,4.766H9.533V9.533H4.766Z" fill="#bdbdbd"/>
  </g>
</svg>
