<svg xmlns="http://www.w3.org/2000/svg" width="92" height="92" viewBox="0 0 92 92">
  <g id="Group_3441" data-name="Group 3441" transform="translate(-825.094 -259)">
    <path id="Path_1021" data-name="Path 1021" d="M46,0A46,46,0,1,1,0,46,46,46,0,0,1,46,0Z" transform="translate(825.094 259)" fill="#9c1c1c"/>
    <g id="Group_1838" data-name="Group 1838" transform="translate(-458.73 -220.421)">
      <g id="Group_1595" data-name="Group 1595" transform="translate(1325.004 502.121)">
        <g id="Group_1594" data-name="Group 1594" transform="translate(0 0)">
          <path id="Path_880" data-name="Path 880" d="M237.95,173.005c-2.456,0-4.372,1.318-4.372,3.653,0,7.127.838,17.367.838,24.494,0,1.856,1.617,2.635,3.534,2.635,1.437,0,3.474-.778,3.474-2.635,0-7.127.838-17.367.838-24.494C242.262,174.323,240.286,173.005,237.95,173.005Z" transform="translate(-233.578 -173.005)" fill="#fff"/>
        </g>
      </g>
      <g id="Group_1597" data-name="Group 1597" transform="translate(1324.825 537.035)">
        <g id="Group_1596" data-name="Group 1596" transform="translate(0 0)">
          <path id="Path_881" data-name="Path 881" d="M237.263,353.306a4.611,4.611,0,1,0,0,9.223,4.612,4.612,0,0,0,0-9.223Z" transform="translate(-232.651 -353.306)" fill="#fff"/>
        </g>
      </g>
    </g>
  </g>
</svg>
