<svg xmlns="http://www.w3.org/2000/svg" width="22.302" height="22.302" viewBox="0 0 22.302 22.302"><defs><style>.a{fill:#312e2e;}</style></defs><path class="a" d="M21.153,8.673H19.067A.8.8,0,0,1,18.5,7.305l1.475-1.475a1.149,1.149,0,0,0,0-1.624L18.1,2.326a1.176,1.176,0,0,0-1.624,0L15,3.8a.8.8,0,0,1-1.367-.566V1.148A1.149,1.149,0,0,0,12.481,0H9.821A1.149,1.149,0,0,0,8.673,1.148V3.235A.8.8,0,0,1,7.305,3.8L5.831,2.326a1.176,1.176,0,0,0-1.624,0l-1.88,1.88a1.149,1.149,0,0,0,0,1.624L3.8,7.305a.8.8,0,0,1-.567,1.367H1.148A1.149,1.149,0,0,0,0,9.821V12.48a1.149,1.149,0,0,0,1.148,1.149H3.235A.8.8,0,0,1,3.8,15L2.326,16.471a1.149,1.149,0,0,0,0,1.624l1.88,1.88a1.175,1.175,0,0,0,1.624,0L7.305,18.5a.8.8,0,0,1,1.367.567v2.086A1.149,1.149,0,0,0,9.821,22.3H12.48a1.149,1.149,0,0,0,1.148-1.148V19.067A.8.8,0,0,1,15,18.5l1.475,1.475a1.176,1.176,0,0,0,1.624,0l1.88-1.88a1.149,1.149,0,0,0,0-1.624L18.5,15a.8.8,0,0,1,.567-1.367h2.086A1.149,1.149,0,0,0,22.3,12.481V9.821A1.149,1.149,0,0,0,21.153,8.673Zm.322,3.808a.323.323,0,0,1-.322.322H19.067a1.627,1.627,0,0,0-1.151,2.778l1.475,1.475a.322.322,0,0,1,0,.456l-1.88,1.88a.322.322,0,0,1-.456,0L15.58,17.916A1.627,1.627,0,0,0,12.8,19.067v2.086a.323.323,0,0,1-.322.322H9.821a.323.323,0,0,1-.322-.322V19.067a1.6,1.6,0,0,0-1-1.5,1.646,1.646,0,0,0-.633-.128,1.6,1.6,0,0,0-1.14.481L5.246,19.391a.322.322,0,0,1-.456,0l-1.88-1.88a.322.322,0,0,1,0-.456L4.385,15.58A1.627,1.627,0,0,0,3.235,12.8H1.148a.323.323,0,0,1-.322-.322V9.821A.323.323,0,0,1,1.148,9.5H3.235A1.627,1.627,0,0,0,4.385,6.721L2.91,5.246a.322.322,0,0,1,0-.456L4.79,2.91a.322.322,0,0,1,.456,0L6.721,4.385A1.627,1.627,0,0,0,9.5,3.235V1.148A.323.323,0,0,1,9.821.826H12.48a.323.323,0,0,1,.323.322V3.235A1.627,1.627,0,0,0,15.58,4.385L17.055,2.91a.322.322,0,0,1,.456,0l1.88,1.88a.322.322,0,0,1,0,.456L17.916,6.721A1.627,1.627,0,0,0,19.067,9.5h2.086a.322.322,0,0,1,.322.322Z"/><path class="a" d="M21.717,18a3.717,3.717,0,1,0,3.717,3.717A3.721,3.721,0,0,0,21.717,18Zm0,6.608a2.891,2.891,0,1,1,2.891-2.891A2.895,2.895,0,0,1,21.717,24.608Z" transform="translate(-10.566 -10.566)"/></svg>