<svg xmlns="http://www.w3.org/2000/svg" width="21.283" height="21.284" viewBox="0 0 21.283 21.284"><defs><style>.a{fill:#01579B;fill-rule:evenodd;}</style></defs><g transform="translate(-0.003 0)"><g transform="translate(0.003 0)"><path class="a" d="M21.219,9.46a.693.693,0,0,0-.684-.524,2.35,2.35,0,0,1-1.608-4.09.591.591,0,0,0,.065-.8,10.53,10.53,0,0,0-1.686-1.7.592.592,0,0,0-.809.065,2.453,2.453,0,0,1-2.654.6A2.364,2.364,0,0,1,12.405.693a.59.59,0,0,0-.522-.622A10.624,10.624,0,0,0,9.489.065a.592.592,0,0,0-.527.609A2.368,2.368,0,0,1,7.5,2.944a2.459,2.459,0,0,1-2.634-.6.593.593,0,0,0-.8-.068,10.57,10.57,0,0,0-1.722,1.7.592.592,0,0,0,.064.809A2.358,2.358,0,0,1,3,7.443,2.46,2.46,0,0,1,.689,8.881.578.578,0,0,0,.074,9.4a10.66,10.66,0,0,0,0,2.42.7.7,0,0,0,.7.523,2.334,2.334,0,0,1,2.19,1.458,2.366,2.366,0,0,1-.6,2.632.591.591,0,0,0-.065.8,10.569,10.569,0,0,0,1.684,1.7.592.592,0,0,0,.81-.064,2.449,2.449,0,0,1,2.653-.6,2.36,2.36,0,0,1,1.44,2.31.591.591,0,0,0,.522.622,10.591,10.591,0,0,0,2.394.006.592.592,0,0,0,.527-.609,2.365,2.365,0,0,1,1.456-2.269,2.456,2.456,0,0,1,2.636.6.6.6,0,0,0,.8.067,10.6,10.6,0,0,0,1.722-1.7.591.591,0,0,0-.064-.809,2.358,2.358,0,0,1-.6-2.655A2.382,2.382,0,0,1,20.46,12.4l.132,0a.592.592,0,0,0,.623-.522A10.651,10.651,0,0,0,21.219,9.46ZM10.661,14.214a3.55,3.55,0,1,1,3.55-3.55A3.553,3.553,0,0,1,10.661,14.214Z" transform="translate(-0.003 0)"/></g></g></svg>