<svg xmlns="http://www.w3.org/2000/svg" width="92" height="92" viewBox="0 0 92 92">
  <g id="Group_3446" data-name="Group 3446" transform="translate(-398.094 -580)">
    <path id="Path_1020" data-name="Path 1020" d="M46,0A46,46,0,1,1,0,46,46,46,0,0,1,46,0Z" transform="translate(398.094 580)" fill="#f8bc1c"/>
    <g id="question-sign-in-circles" transform="translate(414.094 599.308)">
      <g id="Group_118" data-name="Group 118" transform="translate(17.177 6.692)">
        <path id="Path_92" data-name="Path 92" d="M25.591,14.828c3.269,0,5.233,1.744,5.233,4.685,0,5.342-9.537,6.815-9.537,13.3a3.466,3.466,0,0,0,3.486,3.65c3.6,0,3.162-2.67,4.471-4.58,1.742-2.559,9.864-5.284,9.864-12.371,0-7.682-6.864-10.9-13.842-10.9-6.646,0-12.753,4.742-12.753,10.084a3.261,3.261,0,0,0,3.544,3.324C21.341,22.022,18.617,14.828,25.591,14.828Z" transform="translate(-12.514 -8.612)" fill="#fff"/>
        <path id="Path_93" data-name="Path 93" d="M26,30.9a4.469,4.469,0,1,0-4.469,4.469A4.488,4.488,0,0,0,26,30.9Z" transform="translate(-9.052 4.96)" fill="#fff"/>
      </g>
    </g>
  </g>
</svg>
