<svg xmlns="http://www.w3.org/2000/svg" width="13.459" height="13.459" viewBox="0 0 13.459 13.459"><defs><style>.a{fill:#707070;}</style></defs><g transform="translate(0 0)"><path class="a" d="M6.729,0a6.729,6.729,0,1,0,6.73,6.729A6.73,6.73,0,0,0,6.729,0Zm1.4,10.429q-.52.205-.829.312a2.187,2.187,0,0,1-.719.108,1.433,1.433,0,0,1-.978-.307.991.991,0,0,1-.348-.779,2.829,2.829,0,0,1,.026-.375c.018-.128.046-.271.084-.432L5.8,7.424c.038-.147.071-.287.1-.416a1.846,1.846,0,0,0,.039-.361.555.555,0,0,0-.121-.408.686.686,0,0,0-.463-.115,1.216,1.216,0,0,0-.345.051c-.117.036-.218.068-.3.1L4.82,5.8q.426-.173.815-.3a2.407,2.407,0,0,1,.735-.124,1.406,1.406,0,0,1,.964.3,1,1,0,0,1,.338.784q0,.1-.023.351a2.352,2.352,0,0,1-.087.462L7.13,8.809c-.035.122-.067.263-.1.419a2.217,2.217,0,0,0-.042.357A.512.512,0,0,0,7.13,10a.762.762,0,0,0,.471.111,1.367,1.367,0,0,0,.357-.055,2.028,2.028,0,0,0,.288-.1Zm-.076-6.2a1.029,1.029,0,0,1-.726.28,1.04,1.04,0,0,1-.729-.28.9.9,0,0,1-.3-.68.9.9,0,0,1,.3-.681,1.033,1.033,0,0,1,.729-.283,1.021,1.021,0,0,1,.726.283.918.918,0,0,1,0,1.361Z"/></g></svg>