<svg xmlns="http://www.w3.org/2000/svg" width="16.615" height="16.446" viewBox="0 0 16.615 16.446"><defs><style>.a{fill:#bdbdbd;}</style></defs><g transform="translate(0 0)"><path class="a" d="M1.092,10.74a4.045,4.045,0,0,0,.362.859l-.437.551a.452.452,0,0,0,.034.6L1.8,13.5a.45.45,0,0,0,.6.034l.547-.433a3.976,3.976,0,0,0,.893.378l.082.7a.451.451,0,0,0,.447.4H5.436a.451.451,0,0,0,.447-.4l.078-.679a4.021,4.021,0,0,0,.957-.387l.529.419a.452.452,0,0,0,.6-.034l.752-.752a.45.45,0,0,0,.034-.6l-.412-.522a3.928,3.928,0,0,0,.394-.941l.635-.073a.451.451,0,0,0,.4-.447V9.1a.451.451,0,0,0-.4-.447l-.626-.073a3.954,3.954,0,0,0-.378-.93l.385-.487a.452.452,0,0,0-.034-.6l-.75-.75a.45.45,0,0,0-.6-.034l-.472.374A3.967,3.967,0,0,0,6,5.748l-.071-.611a.451.451,0,0,0-.447-.4H4.414a.451.451,0,0,0-.447.4L3.9,5.748a3.95,3.95,0,0,0-1,.424L2.4,5.783a.452.452,0,0,0-.6.034l-.752.752a.45.45,0,0,0-.034.6l.41.519a3.877,3.877,0,0,0-.371.939L.4,8.7a.451.451,0,0,0-.4.447v1.064a.451.451,0,0,0,.4.447ZM4.947,7.862A1.759,1.759,0,1,1,3.188,9.621,1.762,1.762,0,0,1,4.947,7.862Z" transform="translate(-0.001 -4.737)"/><path class="a" d="M484.868,288.98l-.561-.474a.444.444,0,0,0-.592.016l-.31.291a3.207,3.207,0,0,0-.827-.267l-.087-.428a.448.448,0,0,0-.474-.356l-.733.062a.446.446,0,0,0-.408.43l-.014.435a3.215,3.215,0,0,0-.79.415l-.371-.246a.445.445,0,0,0-.586.084l-.474.565a.444.444,0,0,0,.016.592l.324.346a3.323,3.323,0,0,0-.239.791l-.463.094a.448.448,0,0,0-.356.474l.062.733a.446.446,0,0,0,.43.408l.5.016a3.273,3.273,0,0,0,.355.677l-.28.422a.445.445,0,0,0,.084.586l.561.474a.444.444,0,0,0,.592-.016l.367-.344a3.218,3.218,0,0,0,.754.246l.1.5a.448.448,0,0,0,.474.356l.733-.062a.446.446,0,0,0,.408-.43l.016-.492a3.293,3.293,0,0,0,.754-.381l.4.267a.445.445,0,0,0,.586-.084l.474-.561a.444.444,0,0,0-.016-.592l-.326-.346a3.21,3.21,0,0,0,.257-.8l.446-.091a.448.448,0,0,0,.356-.474l-.062-.733a.446.446,0,0,0-.43-.408l-.447-.014a3.237,3.237,0,0,0-.372-.734l.244-.367A.443.443,0,0,0,484.868,288.98Zm-2.761,4.235a1.44,1.44,0,1,1,1.314-1.556A1.44,1.44,0,0,1,482.107,293.215Z" transform="translate(-469.402 -282.714)"/><path class="a" d="M182.7,561.331a.445.445,0,0,0-.4.438l-.005.451a.444.444,0,0,0,.389.447l.332.043a2.57,2.57,0,0,0,.235.576l-.214.264a.444.444,0,0,0,.027.592l.315.323a.445.445,0,0,0,.592.041l.266-.2a2.6,2.6,0,0,0,.592.258l.036.342a.445.445,0,0,0,.438.4l.451.005a.444.444,0,0,0,.447-.389l.041-.324a2.678,2.678,0,0,0,.642-.25l.25.2a.444.444,0,0,0,.592-.027l.323-.316a.445.445,0,0,0,.041-.592l-.191-.248a2.584,2.584,0,0,0,.271-.624l.3-.03a.445.445,0,0,0,.4-.438l.005-.451a.444.444,0,0,0-.389-.447l-.289-.037a2.686,2.686,0,0,0-.244-.624l.18-.221a.444.444,0,0,0-.027-.592l-.315-.323a.445.445,0,0,0-.592-.041l-.216.166a2.621,2.621,0,0,0-.649-.282l-.029-.28a.445.445,0,0,0-.438-.4l-.451-.005a.444.444,0,0,0-.447.389l-.036.278a2.692,2.692,0,0,0-.672.274l-.223-.182a.445.445,0,0,0-.592.027l-.324.317a.445.445,0,0,0-.041.592l.191.246a2.609,2.609,0,0,0-.255.624Zm2.911-.51a1.173,1.173,0,1,1-1.187,1.159A1.174,1.174,0,0,1,185.612,560.821Z" transform="translate(-179.048 -548.859)"/></g></svg>