<svg xmlns="http://www.w3.org/2000/svg" width="19.279" height="17.718" viewBox="0 0 19.279 17.718">
  <g id="Group_3437" data-name="Group 3437" transform="translate(-1308.058 -213.916)">
    <g id="Group_2218" data-name="Group 2218" transform="translate(1246 -104)">
      <path id="Path_1127" data-name="Path 1127" d="M117.314,383.722h-7.5c-.048,0-.09.033-.126.1a.493.493,0,0,0-.053.235v2.007a.493.493,0,0,0,.053.235c.035.066.077.1.126.1h7.5q.073,0,.126-.1a.493.493,0,0,0,.053-.235v-2.007a.493.493,0,0,0-.053-.235Q117.387,383.722,117.314,383.722Z" transform="translate(-36.155 -50.765)" fill="#615f5f"/>
      <path id="Path_1128" data-name="Path 1128" d="M117.314,274.082h-7.5c-.048,0-.09.033-.126.1a.493.493,0,0,0-.053.235v2.007a.492.492,0,0,0,.053.235q.053.1.126.1h7.5c.048,0,.09-.033.126-.1a.492.492,0,0,0,.053-.235v-2.007a.494.494,0,0,0-.053-.235C117.4,274.115,117.362,274.082,117.314,274.082Z" transform="translate(-36.155 53.861)" fill="#615f5f"/>
      <path id="Path_1129" data-name="Path 1129" d="M117.44,54.916q-.053-.1-.126-.1h-7.5q-.073,0-.126.1a.493.493,0,0,0-.053.235v2.007a.492.492,0,0,0,.053.235q.053.1.126.1h7.5c.048,0,.09-.033.126-.1a.492.492,0,0,0,.053-.235V55.151A.494.494,0,0,0,117.44,54.916Z" transform="translate(-36.155 263.099)" fill="#615f5f"/>
      <path id="Path_1130" data-name="Path 1130" d="M117.314,164.453h-7.5q-.073,0-.126.1a.493.493,0,0,0-.053.235v2.007a.493.493,0,0,0,.053.235c.035.066.077.1.126.1h7.5q.073,0,.126-.1a.493.493,0,0,0,.053-.235v-2.007a.494.494,0,0,0-.053-.235Q117.387,164.453,117.314,164.453Z" transform="translate(-36.155 158.477)" fill="#615f5f"/>
      <path id="Path_1127-2" data-name="Path 1127" d="M117.314,383.722h-7.5c-.048,0-.09.033-.126.1a.493.493,0,0,0-.053.235v2.007a.493.493,0,0,0,.053.235c.035.066.077.1.126.1h7.5q.073,0,.126-.1a.493.493,0,0,0,.053-.235v-2.007a.493.493,0,0,0-.053-.235Q117.387,383.722,117.314,383.722Z" transform="translate(-47.578 -50.765)" fill="#615f5f"/>
      <path id="Path_1128-2" data-name="Path 1128" d="M117.314,274.082h-7.5c-.048,0-.09.033-.126.1a.493.493,0,0,0-.053.235v2.007a.492.492,0,0,0,.053.235q.053.1.126.1h7.5c.048,0,.09-.033.126-.1a.492.492,0,0,0,.053-.235v-2.007a.494.494,0,0,0-.053-.235C117.4,274.115,117.362,274.082,117.314,274.082Z" transform="translate(-47.578 53.861)" fill="#615f5f"/>
      <path id="Path_1129-2" data-name="Path 1129" d="M117.44,54.916q-.053-.1-.126-.1h-7.5q-.073,0-.126.1a.493.493,0,0,0-.053.235v2.007a.492.492,0,0,0,.053.235q.053.1.126.1h7.5c.048,0,.09-.033.126-.1a.492.492,0,0,0,.053-.235V55.151A.494.494,0,0,0,117.44,54.916Z" transform="translate(-47.578 263.099)" fill="#615f5f"/>
      <path id="Path_1130-2" data-name="Path 1130" d="M117.314,164.453h-7.5q-.073,0-.126.1a.493.493,0,0,0-.053.235v2.007a.493.493,0,0,0,.053.235c.035.066.077.1.126.1h7.5q.073,0,.126-.1a.493.493,0,0,0,.053-.235v-2.007a.494.494,0,0,0-.053-.235Q117.387,164.453,117.314,164.453Z" transform="translate(-47.578 158.477)" fill="#615f5f"/>
    </g>
  </g>
</svg>
