<svg xmlns="http://www.w3.org/2000/svg" width="30.586" height="30.586" viewBox="0 0 30.586 30.586"><defs><style>.a{fill:#fff;stroke:#707070;}.b{fill:#e1e1e1;}.c{stroke:none;}.d{fill:none;}</style></defs><g transform="translate(-1258.414 -15)"><g class="a" transform="translate(1258.414 15)"><circle class="c" cx="15.293" cy="15.293" r="15.293"/><circle class="d" cx="15.293" cy="15.293" r="14.793"/></g><path class="b" d="M63.051-38A13.056,13.056,0,0,0,50-24.949,13.056,13.056,0,0,0,63.051-11.9,13.056,13.056,0,0,0,76.1-24.949,13.056,13.056,0,0,0,63.051-38Zm0,3.915a3.91,3.91,0,0,1,3.915,3.915,3.91,3.91,0,0,1-3.915,3.915,3.91,3.91,0,0,1-3.915-3.915A3.91,3.91,0,0,1,63.051-34.085Zm0,18.533a9.4,9.4,0,0,1-7.831-4.2c.039-2.6,5.22-4.02,7.831-4.02s7.792,1.423,7.831,4.02A9.4,9.4,0,0,1,63.051-15.552Z" transform="translate(1210.632 55.219)"/></g></svg>