<svg xmlns="http://www.w3.org/2000/svg" width="22.606" height="19.024" viewBox="0 0 22.606 19.024"><defs><style>.a{fill:#01579B;}</style></defs><g transform="translate(0)"><path class="a" d="M13.642,9.613a4.108,4.108,0,0,1,1.912,3.052,3.314,3.314,0,1,0-1.912-3.052ZM11.47,16.4a3.315,3.315,0,1,0-3.316-3.315A3.315,3.315,0,0,0,11.47,16.4Zm1.406.226H10.063a4.25,4.25,0,0,0-4.245,4.245v3.44l.009.054.237.074a19.323,19.323,0,0,0,5.772.931,11.85,11.85,0,0,0,5.04-.946l.221-.112h.024V20.873A4.249,4.249,0,0,0,12.876,16.628ZM18.362,13.2H15.57a4.086,4.086,0,0,1-1.261,2.846,5.044,5.044,0,0,1,3.6,4.827v1.06A11.424,11.424,0,0,0,22.361,21l.221-.112h.024V17.45A4.25,4.25,0,0,0,18.362,13.2ZM5.652,12.979a3.293,3.293,0,0,0,1.763-.512A4.1,4.1,0,0,1,8.958,9.851c0-.062.009-.124.009-.186a3.315,3.315,0,1,0-3.315,3.315ZM8.63,16.051a4.088,4.088,0,0,1-1.26-2.83c-.1-.008-.206-.016-.311-.016H4.245A4.25,4.25,0,0,0,0,17.45v3.441l.009.053.237.075a19.9,19.9,0,0,0,4.781.9V20.878A5.045,5.045,0,0,1,8.63,16.051Z" transform="translate(0 -6.348)"/></g></svg>