<svg xmlns="http://www.w3.org/2000/svg" width="25" height="25" viewBox="0 0 25 25"><defs><style>.a{fill:#030104;}</style></defs><path class="a" d="M24.97,11.667A12.5,12.5,0,0,0,13.333.028V0H11.667V.028A12.5,12.5,0,0,0,.028,11.667H0v1.667H.028A12.5,12.5,0,0,0,11.667,24.97V25h1.667v-.03A12.5,12.5,0,0,0,24.97,13.333H25V11.667ZM7.825,2.725a13.251,13.251,0,0,0-1.96,3.942h-2.5A10.89,10.89,0,0,1,7.825,2.725ZM2.5,8.333h2.93a19.793,19.793,0,0,0-.41,3.333H1.7A10.74,10.74,0,0,1,2.5,8.333Zm-.8,5H5.017a19.793,19.793,0,0,0,.41,3.333H2.5A10.739,10.739,0,0,1,1.7,13.333Zm1.67,5h2.5a13.213,13.213,0,0,0,1.962,3.942A10.879,10.879,0,0,1,3.368,18.333Zm8.3,4.893c-1.713-.458-3.188-2.3-4.083-4.893h4.083Zm0-6.56H7.115a18.627,18.627,0,0,1-.432-3.333h4.983Zm0-5H6.683a18.627,18.627,0,0,1,.432-3.333h4.552Zm0-5H7.583c.895-2.595,2.37-4.435,4.083-4.892Zm9.965,0H19.138a13.215,13.215,0,0,0-1.963-3.942A10.9,10.9,0,0,1,21.632,6.667Zm-8.3-4.892c1.712.457,3.188,2.3,4.083,4.892H13.333Zm0,6.558h4.55a18.777,18.777,0,0,1,.433,3.333H13.333Zm0,5h4.983a18.475,18.475,0,0,1-.433,3.333h-4.55Zm0,9.893V18.333h4.083C16.522,20.928,15.045,22.768,13.333,23.227Zm3.842-.952a13.315,13.315,0,0,0,1.963-3.942h2.493A10.889,10.889,0,0,1,17.175,22.275ZM22.5,16.667h-2.93a19.793,19.793,0,0,0,.41-3.333H23.3A10.691,10.691,0,0,1,22.5,16.667Zm-2.52-5a19.793,19.793,0,0,0-.41-3.333H22.5a10.74,10.74,0,0,1,.8,3.333Z"/></svg>